/* XPM */
static char * gCAD3D_1_xpm[] = {
"32 32 35 1",
" 	c None",
".	c #FFFFFF",
"+	c #FFFEFE",
"@	c #FFF2F2",
"#	c #FFF1F1",
"$	c #FFECEC",
"%	c #FF2121",
"&	c #FF0E0E",
"*	c #FFEBEB",
"=	c #FF1414",
"-	c #FF0000",
";	c #FFFDFD",
">	c #FFE8E8",
",	c #FF1616",
"'	c #FF0202",
")	c #FF1717",
"!	c #FEFFFE",
"~	c #EDFFED",
"{	c #E4FFE4",
"]	c #1AFF1A",
"^	c #F1FFF1",
"/	c #21FF21",
"(	c #01FF01",
"_	c #F0FFF0",
":	c #00FF00",
"<	c #EBFFEB",
"[	c #0BFF0B",
"}	c #FDFFFD",
"|	c #FF2323",
"1	c #FF1010",
"2	c #FF2222",
"3	c #FFDDDD",
"4	c #FFEFEF",
"5	c #FFF0F0",
"6	c #FF2727",
"................................",
"................................",
"................................",
"................................",
"...........+@######@+...........",
"...........$%&&&&&&%$...........",
"...........*=------=*...........",
"...........*=------=*...........",
"...........*=------=*...........",
"...........*=------=*...........",
"...........*=------=*...........",
"...........*=------=*...........",
"....;;;;;;;>,'''''',>;;;;;;;....",
"...*)'''''',>;;;;;;>,'''''')*...",
"...*=------=*.!~~!.*=------=*...",
"...*=------=*!{]]{!*=------=*...",
"...*=------=*^/((/^*=------=*...",
"...*=------=*_]::]_*=------=*...",
"...*=------=*!<[[<!*=------=*...",
"...*=------=*..}}..*=------=*...",
"...$|1111112344444432111111|$...",
"...+544444432111111234444445+...",
"...........*=------=*...........",
"...........*=------=*...........",
"...........*=------=*...........",
"...........*=------=*...........",
"...........*=------=*...........",
"...........*=------=*...........",
"...........$6======6$...........",
"...........;$******$;...........",
"................................",
"................................"};
